<svg width="75" height="76" viewBox="0 0 75 76" fill="none" xmlns="http://www.w3.org/2000/svg">
<g clip-path="url(#clip0_59_21)">
<mask id="mask0_59_21" style="mask-type:luminance" maskUnits="userSpaceOnUse" x="0" y="0" width="75" height="76">
<path d="M0 0H75V76H0V0Z" fill="white"/>
</mask>
<g mask="url(#mask0_59_21)">
<path d="M37.5 0C38.3288 0 39.1237 0.33363 39.7097 0.927495C40.2958 1.52136 40.625 2.32681 40.625 3.16667V15.8333C40.625 16.6732 40.2958 17.4786 39.7097 18.0725C39.1237 18.6664 38.3288 19 37.5 19C36.6712 19 35.8763 18.6664 35.2903 18.0725C34.7042 17.4786 34.375 16.6732 34.375 15.8333V3.16667C34.375 2.32681 34.7042 1.52136 35.2903 0.927495C35.8763 0.33363 36.6712 0 37.5 0ZM15.4031 11.1308C14.8137 10.554 14.0244 10.2348 13.205 10.242C12.3856 10.2492 11.6018 10.5823 11.0224 11.1694C10.443 11.7565 10.1144 12.5508 10.1073 13.3811C10.1001 14.2114 10.4151 15.0113 10.9844 15.6085L19.8219 24.5638C20.4113 25.1407 21.2006 25.4599 22.02 25.4526C22.8394 25.4454 23.6232 25.1124 24.2026 24.5253C24.782 23.9381 25.1106 23.1439 25.1177 22.3136C25.1249 21.4833 24.8099 20.6834 24.2406 20.0862L15.4031 11.1308ZM3.125 34.8333C2.2962 34.8333 1.50134 35.167 0.915291 35.7608C0.32924 36.3547 0 37.1601 0 38C0 38.8399 0.32924 39.6453 0.915291 40.2392C1.50134 40.833 2.2962 41.1667 3.125 41.1667H15.625C16.4538 41.1667 17.2487 40.833 17.8347 40.2392C18.4208 39.6453 18.75 38.8399 18.75 38C18.75 37.1601 18.4208 36.3547 17.8347 35.7608C17.2487 35.167 16.4538 34.8333 15.625 34.8333H3.125ZM56.25 38C56.25 37.1601 56.5792 36.3547 57.1653 35.7608C57.7513 35.167 58.5462 34.8333 59.375 34.8333H71.875C72.7038 34.8333 73.4987 35.167 74.0847 35.7608C74.6708 36.3547 75 37.1601 75 38C75 38.8399 74.6708 39.6453 74.0847 40.2392C73.4987 40.833 72.7038 41.1667 71.875 41.1667H59.375C58.5462 41.1667 57.7513 40.833 57.1653 40.2392C56.5792 39.6453 56.25 38.8399 56.25 38ZM55.1781 51.4362C54.5887 50.8593 53.7994 50.5402 52.98 50.5474C52.1606 50.5546 51.3768 50.8876 50.7974 51.4747C50.218 52.0619 49.8894 52.8561 49.8823 53.6864C49.8751 54.5167 50.1901 55.3166 50.7594 55.9138L59.5969 64.8692C59.8851 65.1716 60.23 65.4129 60.6112 65.5788C60.9925 65.7448 61.4026 65.8321 61.8175 65.8358C62.2324 65.8394 62.6439 65.7593 63.028 65.6001C63.412 65.4409 63.7609 65.2057 64.0544 64.9084C64.3478 64.6111 64.5798 64.2575 64.7369 63.8684C64.8941 63.4792 64.9731 63.0622 64.9695 62.6417C64.9659 62.2213 64.8797 61.8057 64.7159 61.4194C64.5522 61.033 64.3141 60.6836 64.0156 60.3915L55.1781 51.4362ZM24.2406 55.9138C24.5391 55.6217 24.7772 55.2723 24.9409 54.886C25.1047 54.4996 25.1909 54.0841 25.1945 53.6636C25.1981 53.2431 25.1191 52.8262 24.9619 52.437C24.8048 52.0478 24.5728 51.6942 24.2794 51.3969C23.9859 51.0996 23.637 50.8645 23.253 50.7052C22.8689 50.546 22.4574 50.4659 22.0425 50.4695C21.6276 50.4732 21.2175 50.5606 20.8362 50.7265C20.455 50.8925 20.1101 51.1337 19.8219 51.4362L10.9844 60.3883C10.6859 60.6805 10.4478 61.0299 10.2841 61.4162C10.1203 61.8026 10.0341 62.2181 10.0305 62.6386C10.0269 63.059 10.1059 63.476 10.2631 63.8652C10.4202 64.2544 10.6522 64.6079 10.9456 64.9053C11.2391 65.2026 11.588 65.4377 11.972 65.5969C12.3561 65.7562 12.7676 65.8363 13.1825 65.8326C13.5974 65.829 14.0075 65.7416 14.3888 65.5757C14.77 65.4097 15.1149 65.1684 15.4031 64.866L24.2406 55.9138ZM64.0156 15.6085C64.5849 15.0113 64.8999 14.2114 64.8927 13.3811C64.8856 12.5508 64.557 11.7565 63.9776 11.1694C63.3982 10.5823 62.6144 10.2492 61.795 10.242C60.9756 10.2348 60.1863 10.554 59.5969 11.1308L50.7594 20.0862C50.4609 20.3783 50.2228 20.7277 50.0591 21.1141C49.8953 21.5004 49.8091 21.9159 49.8055 22.3364C49.8019 22.7569 49.8809 23.1739 50.0381 23.563C50.1952 23.9522 50.4272 24.3058 50.7206 24.6031C51.0141 24.9004 51.363 25.1355 51.747 25.2948C52.1311 25.454 52.5426 25.5341 52.9575 25.5305C53.3724 25.5268 53.7825 25.4395 54.1638 25.2735C54.545 25.1075 54.8899 24.8663 55.1781 24.5638L64.0156 15.6085ZM40.625 60.1667C40.625 59.3268 40.2958 58.5214 39.7097 57.9275C39.1237 57.3336 38.3288 57 37.5 57C36.6712 57 35.8763 57.3336 35.2903 57.9275C34.7042 58.5214 34.375 59.3268 34.375 60.1667V72.8333C34.375 73.6732 34.7042 74.4786 35.2903 75.0725C35.8763 75.6664 36.6712 76 37.5 76C38.3288 76 39.1237 75.6664 39.7097 75.0725C40.2958 74.4786 40.625 73.6732 40.625 72.8333V60.1667ZM37.5 22.1667C33.356 22.1667 29.3817 23.8348 26.4515 26.8041C23.5212 29.7735 21.875 33.8007 21.875 38C21.875 42.1993 23.5212 46.2265 26.4515 49.1959C29.3817 52.1652 33.356 53.8333 37.5 53.8333C41.644 53.8333 45.6183 52.1652 48.5485 49.1959C51.4788 46.2265 53.125 42.1993 53.125 38C53.125 33.8007 51.4788 29.7735 48.5485 26.8041C45.6183 23.8348 41.644 22.1667 37.5 22.1667Z" fill="white"/>
</g>
</g>
<defs>
<clipPath id="clip0_59_21">
<rect width="75" height="76" fill="white"/>
</clipPath>
</defs>
</svg>
