<svg width="40" height="44" viewBox="0 0 40 44" fill="none" xmlns="http://www.w3.org/2000/svg">
<path d="M35 0H5C2.2425 0 0 2.46558 0 5.49739V38.4817C0 41.5135 2.2425 43.9791 5 43.9791H20V28.8613H15V21.9896H20V16.4922C20 14.3052 20.7902 12.2077 22.1967 10.6613C23.6032 9.11487 25.5109 8.24608 27.5 8.24608H32.5V15.1178H30C28.62 15.1178 27.5 14.9749 27.5 16.4922V21.9896H33.75L31.25 28.8613H27.5V43.9791H35C37.7575 43.9791 40 41.5135 40 38.4817V5.49739C40 2.46558 37.7575 0 35 0Z" fill="white"/>
</svg>
