<svg width="40" height="44" viewBox="0 0 40 44" fill="none" xmlns="http://www.w3.org/2000/svg">
<path fill-rule="evenodd" clip-rule="evenodd" d="M21.9999 33.9838C28.0248 33.9838 32.909 28.6138 32.909 21.9895C32.909 15.3653 28.0248 9.99524 21.9999 9.99524C15.975 9.99524 11.0908 15.3653 11.0908 21.9895C11.0908 28.6138 15.975 33.9838 21.9999 33.9838ZM21.9999 29.9857C26.0165 29.9857 29.2726 26.4056 29.2726 21.9895C29.2726 17.5734 26.0165 13.9933 21.9999 13.9933C17.9833 13.9933 14.7272 17.5734 14.7272 21.9895C14.7272 26.4056 17.9833 29.9857 21.9999 29.9857Z" fill="black"/>
<path d="M32.909 7.99622C31.9048 7.99622 31.0908 8.89112 31.0908 9.99503C31.0908 11.0989 31.9048 11.9938 32.909 11.9938C33.9132 11.9938 34.7272 11.0989 34.7272 9.99503C34.7272 8.89112 33.9132 7.99622 32.909 7.99622Z" fill="black"/>
<path fill-rule="evenodd" clip-rule="evenodd" d="M1.18902 6.54901C0 9.11473 0 12.4735 0 19.1909V24.7882C0 31.5056 0 34.8644 1.18902 37.43C2.23491 39.687 3.90378 41.5219 5.95647 42.6717C8.29006 43.9791 11.3449 43.9791 17.4545 43.9791H22.5455C28.6551 43.9791 31.71 43.9791 34.0435 42.6717C36.0962 41.5219 37.7651 39.687 38.8109 37.43C40 34.8644 40 31.5056 40 24.7882V19.1909C40 12.4735 40 9.11473 38.8109 6.54901C37.7651 4.29212 36.0962 2.45723 34.0435 1.3073C31.71 0 28.6551 0 22.5455 0H17.4545C11.3449 0 8.29006 0 5.95647 1.3073C3.90378 2.45723 2.23491 4.29212 1.18902 6.54901ZM22.5455 3.9981H17.4545C14.3397 3.9981 12.2223 4.00122 10.5856 4.14823C8.99135 4.29144 8.17607 4.55102 7.60735 4.86963C6.23889 5.63626 5.12631 6.85952 4.42904 8.36411C4.13925 8.98941 3.90316 9.88579 3.77291 11.6386C3.6392 13.4381 3.63636 15.7662 3.63636 19.1909V24.7882C3.63636 28.213 3.6392 30.5409 3.77291 32.3404C3.90316 34.0934 4.13925 34.9898 4.42904 35.6151C5.12631 37.1196 6.23889 38.3428 7.60735 39.1094C8.17607 39.4281 8.99135 39.6878 10.5856 39.8309C12.2223 39.9778 14.3397 39.981 17.4545 39.981H22.5455C25.6604 39.981 27.7776 39.9778 29.4144 39.8309C31.0087 39.6878 31.824 39.4281 32.3927 39.1094C33.7611 38.3428 34.8736 37.1196 35.5709 35.6151C35.8607 34.9898 36.0969 34.0934 36.2271 32.3404C36.3607 30.5409 36.3636 28.213 36.3636 24.7882V19.1909C36.3636 15.7662 36.3607 13.4381 36.2271 11.6386C36.0969 9.88579 35.8607 8.98941 35.5709 8.36411C34.8736 6.85952 33.7611 5.63626 32.3927 4.86963C31.824 4.55102 31.0087 4.29144 29.4144 4.14823C27.7776 4.00122 25.6604 3.9981 22.5455 3.9981Z" fill="black"/>
</svg>
