<svg width="78" height="78" viewBox="0 0 78 78" fill="none" xmlns="http://www.w3.org/2000/svg">
<path d="M51.548 67C49.0593 67 46.5635 66.6701 44.1298 66.0173C36.7772 64.0466 30.6344 59.3317 26.8295 52.7419C23.0246 46.1521 22.0136 38.4731 23.9825 31.1223C25.9515 23.7698 30.6663 17.627 37.2579 13.8221C42.7054 10.6753 48.8766 9.4354 55.1151 10.2372C56.0109 10.3507 56.7453 11.023 56.9387 11.9081C57.1338 12.788 56.7506 13.705 55.9808 14.1857C47.3546 19.5889 44.5856 30.7321 49.6766 39.5516C54.7692 48.3729 65.8043 51.5446 74.7959 46.7747C75.5977 46.3508 76.5839 46.4767 77.2509 47.0869C77.9161 47.6971 78.1307 48.6656 77.783 49.4993C75.36 55.298 71.1985 60.0253 65.7511 63.1721C61.4105 65.6767 56.5005 67 51.548 67ZM51.4362 12.4988C46.9076 12.4988 42.4925 13.682 38.5049 15.9862C32.4916 19.4558 28.1918 25.0611 26.3932 31.7698C24.5963 38.4767 25.5187 45.4816 28.9901 51.4949C32.4615 57.5082 38.0668 61.8098 44.7737 63.6067C51.4149 65.384 58.5475 64.4457 64.4988 61.0098C69.1888 58.3011 72.8322 54.3082 75.0868 49.423C65.0682 54.1769 53.1143 50.5086 47.5107 40.8022C41.9071 31.0975 44.708 18.9095 53.8309 12.6106C53.0327 12.5361 52.2327 12.4988 51.4362 12.4988Z" fill="black"/>
</svg>
