<svg width="257" height="139" viewBox="0 0 257 139" fill="none" xmlns="http://www.w3.org/2000/svg">
<path d="M22.824 30.176L15.408 53H11.664L3.42 29.924C2.46 29.732 1.38 29.444 0.18 29.06L0.288 27.8H9.648C10.056 28.568 10.26 29.288 10.26 29.96C9.084 30.032 8.004 30.104 7.02 30.176L13.392 49.22H13.572C14.1 47.42 16.104 40.988 19.584 29.924C18.624 29.78 17.496 29.492 16.2 29.06L16.308 27.8H25.344C25.752 28.568 25.956 29.288 25.956 29.96C24.852 30.032 23.808 30.104 22.824 30.176ZM29.9483 28.556C30.3803 28.412 31.5563 28.256 33.4763 28.088C35.3963 27.896 37.1363 27.8 38.6963 27.8C40.2803 27.8 41.5043 27.872 42.3683 28.016C42.3923 28.112 42.4043 28.232 42.4043 28.376C42.4043 28.496 42.3323 28.796 42.1883 29.276C42.0683 29.756 41.9723 30.068 41.9003 30.212C41.7083 30.404 41.1683 30.548 40.2803 30.644L47.1563 50.552L50.5763 50.84C50.5763 51.512 50.3723 52.232 49.9643 53H41.6843L41.5763 51.74C42.1283 51.452 42.9323 51.2 43.9883 50.984L42.1523 45.836H32.1083L30.4163 50.552L33.3323 50.84C33.3323 51.512 33.1283 52.232 32.7203 53H24.4403L24.3323 51.74C25.2683 51.404 26.2643 51.14 27.3203 50.948L34.3043 30.536C32.1683 30.296 30.6683 30.008 29.8043 29.672L29.9483 28.556ZM39.3083 37.808L37.4003 30.752C37.2563 30.728 37.0523 30.716 36.7883 30.716L34.8443 38.06L32.7563 43.532H41.5043L39.3083 37.808ZM58.6136 32.264L58.2536 50.552L61.2776 50.84C61.2776 51.512 61.0736 52.232 60.6656 53H52.3856L52.2776 51.74C53.5736 51.308 54.6776 51.02 55.5896 50.876C55.5416 49.316 55.4576 46.1 55.3376 41.228C55.2416 36.356 55.1576 32.588 55.0856 29.924C54.1736 29.78 53.0936 29.492 51.8456 29.06L51.9536 27.8H59.0816L72.2216 48.788L71.6096 29.924C70.7216 29.756 69.6536 29.468 68.4056 29.06L68.5136 27.8H77.5136C77.9216 28.568 78.1256 29.288 78.1256 29.96C76.9256 30.056 75.9656 30.104 75.2456 30.104L74.8856 53H71.3936L58.6136 32.264Z" fill="white"/>
<path d="M66.396 60.284L70.176 80.552L73.452 80.876C73.452 81.524 73.248 82.232 72.84 83H64.56L64.452 81.74C65.172 81.428 66.06 81.176 67.116 80.984L63.264 60.788L58.512 81.272H54.948L48.396 60.716L45.48 80.552L48.54 80.84C48.54 81.512 48.336 82.232 47.928 83H39.648L39.54 81.74C40.596 81.356 41.652 81.068 42.708 80.876L45.876 59.996C44.412 59.78 43.248 59.528 42.384 59.24L42.528 57.8H50.916L56.64 77.528H56.784L61.248 57.8H69.276C69.684 58.568 69.888 59.312 69.888 60.032C68.328 60.2 67.164 60.284 66.396 60.284ZM82.7645 60.104L82.4045 80.552L85.4285 80.84C85.4285 81.512 85.2245 82.232 84.8165 83H76.5365L76.4285 81.74C77.5325 81.356 78.6245 81.068 79.7045 80.876C79.6565 79.316 79.5725 76.1 79.4525 71.228C79.3565 66.356 79.2725 62.588 79.2005 59.924C78.2405 59.732 77.1605 59.444 75.9605 59.06L76.0685 57.8H85.0685C85.4765 58.568 85.6805 59.288 85.6805 59.96C84.4565 60.056 83.4845 60.104 82.7645 60.104ZM98.9603 83.468C91.9043 83.468 88.3763 79.04 88.3763 70.184C88.3763 65.984 89.2283 62.792 90.9323 60.608C92.6603 58.424 95.4083 57.332 99.1763 57.332C102.2 57.332 104.888 58.172 107.24 59.852C107.24 61.196 107.072 62.9 106.736 64.964C106.4 65.036 105.704 65.072 104.648 65.072L103.568 60.608C101.864 60.296 100.496 60.14 99.4643 60.14C97.5683 60.14 95.9003 60.404 94.4603 60.932L93.7763 61.184C93.6323 61.424 93.4523 61.784 93.2363 62.264C93.0203 62.72 92.7323 63.692 92.3723 65.18C92.0363 66.668 91.8683 68.192 91.8683 69.752C91.8683 73.136 92.4203 75.824 93.5243 77.816C94.6523 79.808 96.4403 80.804 98.8883 80.804C100.64 80.804 101.96 80.624 102.848 80.264C103.088 80.144 103.436 79.964 103.892 79.724L104.648 75.404L106.736 75.512C107.096 77.984 107.276 79.988 107.276 81.524C106.772 81.908 105.68 82.328 104 82.784C102.344 83.24 100.664 83.468 98.9603 83.468ZM116.594 68.564L128.33 68.6C128.282 65.672 128.21 62.78 128.114 59.924C127.226 59.756 126.158 59.468 124.91 59.06L125.018 57.8H134.018C134.426 58.568 134.63 59.288 134.63 59.96C133.43 60.056 132.47 60.104 131.75 60.104L131.354 80.552L134.378 80.84C134.378 81.512 134.174 82.232 133.766 83H125.486L125.378 81.74C126.506 81.356 127.61 81.068 128.69 80.876L128.402 70.868H116.522C116.474 75.188 116.45 78.416 116.45 80.552L119.474 80.84C119.474 81.512 119.27 82.232 118.862 83H110.582L110.474 81.74C111.602 81.356 112.706 81.068 113.786 80.876C113.546 71.564 113.354 64.58 113.21 59.924C112.322 59.756 111.254 59.468 110.006 59.06L110.114 57.8H119.114C119.522 58.568 119.726 59.288 119.726 59.96C118.526 60.056 117.566 60.104 116.846 60.104C116.774 61.928 116.69 64.748 116.594 68.564ZM141.511 58.556C141.943 58.412 143.119 58.256 145.039 58.088C146.959 57.896 148.699 57.8 150.259 57.8C151.843 57.8 153.067 57.872 153.931 58.016C153.955 58.112 153.967 58.232 153.967 58.376C153.967 58.496 153.895 58.796 153.751 59.276C153.631 59.756 153.535 60.068 153.463 60.212C153.271 60.404 152.731 60.548 151.843 60.644L158.719 80.552L162.139 80.84C162.139 81.512 161.935 82.232 161.527 83H153.247L153.139 81.74C153.691 81.452 154.495 81.2 155.551 80.984L153.715 75.836H143.671L141.979 80.552L144.895 80.84C144.895 81.512 144.691 82.232 144.283 83H136.003L135.895 81.74C136.831 81.404 137.827 81.14 138.883 80.948L145.867 60.536C143.731 60.296 142.231 60.008 141.367 59.672L141.511 58.556ZM150.871 67.808L148.963 60.752C148.819 60.728 148.615 60.716 148.351 60.716L146.407 68.06L144.319 73.532H153.067L150.871 67.808ZM170.176 60.284L169.996 68.96H175.684L175.972 66.368C176.644 66.368 177.364 66.572 178.132 66.98V73.82L176.872 73.928C176.512 72.896 176.272 72.032 176.152 71.336H169.996C169.948 73.424 169.9 76.508 169.852 80.588H178.096L178.96 77.204L181.048 77.348C181.384 78.716 181.552 79.928 181.552 80.984C181.552 82.016 181.528 82.688 181.48 83H163.984L163.876 81.74C164.932 81.356 165.952 81.08 166.936 80.912C166.792 71.552 166.672 64.592 166.576 60.032C166.048 59.984 164.992 59.696 163.408 59.168L163.588 57.8H180.94C180.988 58.112 181.012 58.592 181.012 59.24C181.012 60.56 180.844 61.988 180.508 63.524C179.98 63.644 179.284 63.704 178.42 63.704L177.556 60.284H170.176ZM203.502 77.348C203.574 77.492 203.67 78.044 203.79 79.004C203.934 79.964 204.006 80.78 204.006 81.452C204.006 82.1 203.97 82.616 203.898 83H186.798L186.69 81.74C187.818 81.332 188.838 81.056 189.75 80.912C189.606 71.456 189.486 64.484 189.39 59.996C188.766 59.9 187.71 59.612 186.222 59.132L186.402 57.8H195.078C195.486 58.472 195.69 59.18 195.69 59.924C194.394 59.972 193.458 60.008 192.882 60.032C192.834 64.64 192.786 68.84 192.738 72.632C192.714 76.4 192.69 79.052 192.666 80.588H200.55L201.414 77.168C202.614 77.168 203.31 77.228 203.502 77.348Z" fill="white"/>
<path d="M7.836 83V57.116H33.72V83H7.836ZM9.996 80.84H31.56V59.276H9.996V80.84Z" fill="white"/>
</svg>
