<svg width="40" height="44" viewBox="0 0 40 44" fill="none" xmlns="http://www.w3.org/2000/svg">
<path d="M35.0188 9.40556C34.7073 9.25215 34.404 9.08397 34.1102 8.90166C33.2557 8.36336 32.4723 7.72908 31.7768 7.01249C30.0366 5.11507 29.3866 3.19016 29.1472 1.84245H29.1568C28.9569 0.723787 29.0395 0 29.052 0H21.1259V29.2062C21.1259 29.5983 21.1259 29.9858 21.1086 30.3688C21.1086 30.4165 21.1038 30.4604 21.1009 30.5117C21.1009 30.5328 21.1009 30.5548 21.0961 30.5768C21.0961 30.5823 21.0961 30.5878 21.0961 30.5933C21.0126 31.6412 20.66 32.6535 20.0696 33.5411C19.4791 34.4287 18.6688 35.1645 17.7099 35.6836C16.7105 36.2254 15.5802 36.5096 14.4304 36.5082C10.7375 36.5082 7.74453 33.6387 7.74453 30.0949C7.74453 26.5511 10.7375 23.6816 14.4304 23.6816C15.1295 23.681 15.8242 23.7858 16.4889 23.9922L16.4985 16.3017C14.4808 16.0533 12.4309 16.2061 10.4783 16.7505C8.52563 17.2948 6.71256 18.2189 5.15344 19.4644C3.7873 20.5955 2.63877 21.9451 1.75955 23.4525C1.42497 24.0022 0.162592 26.2112 0.00972199 29.7962C-0.0864224 31.831 0.55486 33.9392 0.860599 34.8105V34.8288C1.05289 35.3419 1.79801 37.0927 3.01231 38.5687C3.99148 39.7526 5.14834 40.7927 6.44562 41.6553V41.637L6.46485 41.6553C10.302 44.14 14.5564 43.9769 14.5564 43.9769C15.2928 43.9485 17.7599 43.9769 20.5615 42.7117C23.6689 41.309 25.438 39.2192 25.438 39.2192C26.5681 37.9705 27.4668 36.5474 28.0954 35.0111C28.8126 33.2145 29.052 31.0596 29.052 30.1984V14.7039C29.1482 14.7588 30.4288 15.566 30.4288 15.566C30.4288 15.566 32.2738 16.6929 35.1524 17.4268C37.2176 17.949 40 18.0589 40 18.0589V10.5609C39.0251 10.6617 37.0455 10.3685 35.0188 9.40556Z" fill="white"/>
</svg>
