<svg width="206" height="76" viewBox="0 0 206 76" fill="none" xmlns="http://www.w3.org/2000/svg">
<mask id="path-1-outside-1_65_692" maskUnits="userSpaceOnUse" x="0" y="0" width="206" height="76" fill="black">
<rect fill="white" width="206" height="76"/>
<path d="M23.824 4.176L16.408 27H12.664L4.42 3.924C3.46 3.732 2.38 3.444 1.18 3.06L1.288 1.8H10.648C11.056 2.568 11.26 3.288 11.26 3.96C10.084 4.032 9.004 4.104 8.02 4.176L14.392 23.22H14.572C15.1 21.42 17.104 14.988 20.584 3.924C19.624 3.78 18.496 3.492 17.2 3.06L17.308 1.8H26.344C26.752 2.568 26.956 3.288 26.956 3.96C25.852 4.032 24.808 4.104 23.824 4.176ZM30.9483 2.556C31.3803 2.412 32.5563 2.256 34.4763 2.088C36.3963 1.896 38.1363 1.8 39.6963 1.8C41.2803 1.8 42.5043 1.872 43.3683 2.016C43.3923 2.112 43.4043 2.232 43.4043 2.376C43.4043 2.496 43.3323 2.796 43.1883 3.276C43.0683 3.756 42.9723 4.068 42.9003 4.212C42.7083 4.404 42.1683 4.548 41.2803 4.644L48.1563 24.552L51.5763 24.84C51.5763 25.512 51.3723 26.232 50.9643 27H42.6843L42.5763 25.74C43.1283 25.452 43.9323 25.2 44.9883 24.984L43.1523 19.836H33.1083L31.4163 24.552L34.3323 24.84C34.3323 25.512 34.1283 26.232 33.7203 27H25.4403L25.3323 25.74C26.2683 25.404 27.2643 25.14 28.3203 24.948L35.3043 4.536C33.1683 4.296 31.6683 4.008 30.8043 3.672L30.9483 2.556ZM40.3083 11.808L38.4003 4.752C38.2563 4.728 38.0523 4.716 37.7883 4.716L35.8443 12.06L33.7563 17.532H42.5043L40.3083 11.808ZM59.6136 6.264L59.2536 24.552L62.2776 24.84C62.2776 25.512 62.0736 26.232 61.6656 27H53.3856L53.2776 25.74C54.5736 25.308 55.6776 25.02 56.5896 24.876C56.5416 23.316 56.4576 20.1 56.3376 15.228C56.2416 10.356 56.1576 6.588 56.0856 3.924C55.1736 3.78 54.0936 3.492 52.8456 3.06L52.9536 1.8H60.0816L73.2216 22.788L72.6096 3.924C71.7216 3.756 70.6536 3.468 69.4056 3.06L69.5136 1.8H78.5136C78.9216 2.568 79.1256 3.288 79.1256 3.96C77.9256 4.056 76.9656 4.104 76.2456 4.104L75.8856 27H72.3936L59.6136 6.264ZM2.836 74V48.116H28.72V74H2.836ZM4.996 71.84H26.56V50.276H4.996V71.84ZM67.314 51.284L71.094 71.552L74.37 71.876C74.37 72.524 74.166 73.232 73.758 74H65.478L65.37 72.74C66.09 72.428 66.978 72.176 68.034 71.984L64.182 51.788L59.43 72.272H55.866L49.314 51.716L46.398 71.552L49.458 71.84C49.458 72.512 49.254 73.232 48.846 74H40.566L40.458 72.74C41.514 72.356 42.57 72.068 43.626 71.876L46.794 50.996C45.33 50.78 44.166 50.528 43.302 50.24L43.446 48.8H51.834L57.558 68.528H57.702L62.166 48.8H70.194C70.602 49.568 70.806 50.312 70.806 51.032C69.246 51.2 68.082 51.284 67.314 51.284ZM83.6824 51.104L83.3224 71.552L86.3464 71.84C86.3464 72.512 86.1424 73.232 85.7344 74H77.4544L77.3464 72.74C78.4504 72.356 79.5424 72.068 80.6224 71.876C80.5744 70.316 80.4904 67.1 80.3704 62.228C80.2744 57.356 80.1904 53.588 80.1184 50.924C79.1584 50.732 78.0784 50.444 76.8784 50.06L76.9864 48.8H85.9864C86.3944 49.568 86.5984 50.288 86.5984 50.96C85.3744 51.056 84.4024 51.104 83.6824 51.104ZM99.8782 74.468C92.8222 74.468 89.2942 70.04 89.2942 61.184C89.2942 56.984 90.1462 53.792 91.8502 51.608C93.5782 49.424 96.3262 48.332 100.094 48.332C103.118 48.332 105.806 49.172 108.158 50.852C108.158 52.196 107.99 53.9 107.654 55.964C107.318 56.036 106.622 56.072 105.566 56.072L104.486 51.608C102.782 51.296 101.414 51.14 100.382 51.14C98.4862 51.14 96.8182 51.404 95.3782 51.932L94.6942 52.184C94.5502 52.424 94.3702 52.784 94.1542 53.264C93.9382 53.72 93.6502 54.692 93.2902 56.18C92.9542 57.668 92.7862 59.192 92.7862 60.752C92.7862 64.136 93.3382 66.824 94.4422 68.816C95.5702 70.808 97.3582 71.804 99.8062 71.804C101.558 71.804 102.878 71.624 103.766 71.264C104.006 71.144 104.354 70.964 104.81 70.724L105.566 66.404L107.654 66.512C108.014 68.984 108.194 70.988 108.194 72.524C107.69 72.908 106.598 73.328 104.918 73.784C103.262 74.24 101.582 74.468 99.8782 74.468ZM117.512 59.564L129.248 59.6C129.2 56.672 129.128 53.78 129.032 50.924C128.144 50.756 127.076 50.468 125.828 50.06L125.936 48.8H134.936C135.344 49.568 135.548 50.288 135.548 50.96C134.348 51.056 133.388 51.104 132.668 51.104L132.272 71.552L135.296 71.84C135.296 72.512 135.092 73.232 134.684 74H126.404L126.296 72.74C127.424 72.356 128.528 72.068 129.608 71.876L129.32 61.868H117.44C117.392 66.188 117.368 69.416 117.368 71.552L120.392 71.84C120.392 72.512 120.188 73.232 119.78 74H111.5L111.392 72.74C112.52 72.356 113.624 72.068 114.704 71.876C114.464 62.564 114.272 55.58 114.128 50.924C113.24 50.756 112.172 50.468 110.924 50.06L111.032 48.8H120.032C120.44 49.568 120.644 50.288 120.644 50.96C119.444 51.056 118.484 51.104 117.764 51.104C117.692 52.928 117.608 55.748 117.512 59.564ZM142.429 49.556C142.861 49.412 144.037 49.256 145.957 49.088C147.877 48.896 149.617 48.8 151.177 48.8C152.761 48.8 153.985 48.872 154.849 49.016C154.873 49.112 154.885 49.232 154.885 49.376C154.885 49.496 154.813 49.796 154.669 50.276C154.549 50.756 154.453 51.068 154.381 51.212C154.189 51.404 153.649 51.548 152.761 51.644L159.637 71.552L163.057 71.84C163.057 72.512 162.853 73.232 162.445 74H154.165L154.057 72.74C154.609 72.452 155.413 72.2 156.469 71.984L154.633 66.836H144.589L142.897 71.552L145.813 71.84C145.813 72.512 145.609 73.232 145.201 74H136.921L136.813 72.74C137.749 72.404 138.745 72.14 139.801 71.948L146.785 51.536C144.649 51.296 143.149 51.008 142.285 50.672L142.429 49.556ZM151.789 58.808L149.881 51.752C149.737 51.728 149.533 51.716 149.269 51.716L147.325 59.06L145.237 64.532H153.985L151.789 58.808ZM171.094 51.284L170.914 59.96H176.602L176.89 57.368C177.562 57.368 178.282 57.572 179.05 57.98V64.82L177.79 64.928C177.43 63.896 177.19 63.032 177.07 62.336H170.914C170.866 64.424 170.818 67.508 170.77 71.588H179.014L179.878 68.204L181.966 68.348C182.302 69.716 182.47 70.928 182.47 71.984C182.47 73.016 182.446 73.688 182.398 74H164.902L164.794 72.74C165.85 72.356 166.87 72.08 167.854 71.912C167.71 62.552 167.59 55.592 167.494 51.032C166.966 50.984 165.91 50.696 164.326 50.168L164.506 48.8H181.858C181.906 49.112 181.93 49.592 181.93 50.24C181.93 51.56 181.762 52.988 181.426 54.524C180.898 54.644 180.202 54.704 179.338 54.704L178.474 51.284H171.094ZM204.42 68.348C204.492 68.492 204.588 69.044 204.708 70.004C204.852 70.964 204.924 71.78 204.924 72.452C204.924 73.1 204.888 73.616 204.816 74H187.716L187.608 72.74C188.736 72.332 189.756 72.056 190.668 71.912C190.524 62.456 190.404 55.484 190.308 50.996C189.684 50.9 188.628 50.612 187.14 50.132L187.32 48.8H195.996C196.404 49.472 196.608 50.18 196.608 50.924C195.312 50.972 194.376 51.008 193.8 51.032C193.752 55.64 193.704 59.84 193.656 63.632C193.632 67.4 193.608 70.052 193.584 71.588H201.468L202.332 68.168C203.532 68.168 204.228 68.228 204.42 68.348Z"/>
</mask>
<path d="M23.824 4.176L16.408 27H12.664L4.42 3.924C3.46 3.732 2.38 3.444 1.18 3.06L1.288 1.8H10.648C11.056 2.568 11.26 3.288 11.26 3.96C10.084 4.032 9.004 4.104 8.02 4.176L14.392 23.22H14.572C15.1 21.42 17.104 14.988 20.584 3.924C19.624 3.78 18.496 3.492 17.2 3.06L17.308 1.8H26.344C26.752 2.568 26.956 3.288 26.956 3.96C25.852 4.032 24.808 4.104 23.824 4.176ZM30.9483 2.556C31.3803 2.412 32.5563 2.256 34.4763 2.088C36.3963 1.896 38.1363 1.8 39.6963 1.8C41.2803 1.8 42.5043 1.872 43.3683 2.016C43.3923 2.112 43.4043 2.232 43.4043 2.376C43.4043 2.496 43.3323 2.796 43.1883 3.276C43.0683 3.756 42.9723 4.068 42.9003 4.212C42.7083 4.404 42.1683 4.548 41.2803 4.644L48.1563 24.552L51.5763 24.84C51.5763 25.512 51.3723 26.232 50.9643 27H42.6843L42.5763 25.74C43.1283 25.452 43.9323 25.2 44.9883 24.984L43.1523 19.836H33.1083L31.4163 24.552L34.3323 24.84C34.3323 25.512 34.1283 26.232 33.7203 27H25.4403L25.3323 25.74C26.2683 25.404 27.2643 25.14 28.3203 24.948L35.3043 4.536C33.1683 4.296 31.6683 4.008 30.8043 3.672L30.9483 2.556ZM40.3083 11.808L38.4003 4.752C38.2563 4.728 38.0523 4.716 37.7883 4.716L35.8443 12.06L33.7563 17.532H42.5043L40.3083 11.808ZM59.6136 6.264L59.2536 24.552L62.2776 24.84C62.2776 25.512 62.0736 26.232 61.6656 27H53.3856L53.2776 25.74C54.5736 25.308 55.6776 25.02 56.5896 24.876C56.5416 23.316 56.4576 20.1 56.3376 15.228C56.2416 10.356 56.1576 6.588 56.0856 3.924C55.1736 3.78 54.0936 3.492 52.8456 3.06L52.9536 1.8H60.0816L73.2216 22.788L72.6096 3.924C71.7216 3.756 70.6536 3.468 69.4056 3.06L69.5136 1.8H78.5136C78.9216 2.568 79.1256 3.288 79.1256 3.96C77.9256 4.056 76.9656 4.104 76.2456 4.104L75.8856 27H72.3936L59.6136 6.264ZM2.836 74V48.116H28.72V74H2.836ZM4.996 71.84H26.56V50.276H4.996V71.84ZM67.314 51.284L71.094 71.552L74.37 71.876C74.37 72.524 74.166 73.232 73.758 74H65.478L65.37 72.74C66.09 72.428 66.978 72.176 68.034 71.984L64.182 51.788L59.43 72.272H55.866L49.314 51.716L46.398 71.552L49.458 71.84C49.458 72.512 49.254 73.232 48.846 74H40.566L40.458 72.74C41.514 72.356 42.57 72.068 43.626 71.876L46.794 50.996C45.33 50.78 44.166 50.528 43.302 50.24L43.446 48.8H51.834L57.558 68.528H57.702L62.166 48.8H70.194C70.602 49.568 70.806 50.312 70.806 51.032C69.246 51.2 68.082 51.284 67.314 51.284ZM83.6824 51.104L83.3224 71.552L86.3464 71.84C86.3464 72.512 86.1424 73.232 85.7344 74H77.4544L77.3464 72.74C78.4504 72.356 79.5424 72.068 80.6224 71.876C80.5744 70.316 80.4904 67.1 80.3704 62.228C80.2744 57.356 80.1904 53.588 80.1184 50.924C79.1584 50.732 78.0784 50.444 76.8784 50.06L76.9864 48.8H85.9864C86.3944 49.568 86.5984 50.288 86.5984 50.96C85.3744 51.056 84.4024 51.104 83.6824 51.104ZM99.8782 74.468C92.8222 74.468 89.2942 70.04 89.2942 61.184C89.2942 56.984 90.1462 53.792 91.8502 51.608C93.5782 49.424 96.3262 48.332 100.094 48.332C103.118 48.332 105.806 49.172 108.158 50.852C108.158 52.196 107.99 53.9 107.654 55.964C107.318 56.036 106.622 56.072 105.566 56.072L104.486 51.608C102.782 51.296 101.414 51.14 100.382 51.14C98.4862 51.14 96.8182 51.404 95.3782 51.932L94.6942 52.184C94.5502 52.424 94.3702 52.784 94.1542 53.264C93.9382 53.72 93.6502 54.692 93.2902 56.18C92.9542 57.668 92.7862 59.192 92.7862 60.752C92.7862 64.136 93.3382 66.824 94.4422 68.816C95.5702 70.808 97.3582 71.804 99.8062 71.804C101.558 71.804 102.878 71.624 103.766 71.264C104.006 71.144 104.354 70.964 104.81 70.724L105.566 66.404L107.654 66.512C108.014 68.984 108.194 70.988 108.194 72.524C107.69 72.908 106.598 73.328 104.918 73.784C103.262 74.24 101.582 74.468 99.8782 74.468ZM117.512 59.564L129.248 59.6C129.2 56.672 129.128 53.78 129.032 50.924C128.144 50.756 127.076 50.468 125.828 50.06L125.936 48.8H134.936C135.344 49.568 135.548 50.288 135.548 50.96C134.348 51.056 133.388 51.104 132.668 51.104L132.272 71.552L135.296 71.84C135.296 72.512 135.092 73.232 134.684 74H126.404L126.296 72.74C127.424 72.356 128.528 72.068 129.608 71.876L129.32 61.868H117.44C117.392 66.188 117.368 69.416 117.368 71.552L120.392 71.84C120.392 72.512 120.188 73.232 119.78 74H111.5L111.392 72.74C112.52 72.356 113.624 72.068 114.704 71.876C114.464 62.564 114.272 55.58 114.128 50.924C113.24 50.756 112.172 50.468 110.924 50.06L111.032 48.8H120.032C120.44 49.568 120.644 50.288 120.644 50.96C119.444 51.056 118.484 51.104 117.764 51.104C117.692 52.928 117.608 55.748 117.512 59.564ZM142.429 49.556C142.861 49.412 144.037 49.256 145.957 49.088C147.877 48.896 149.617 48.8 151.177 48.8C152.761 48.8 153.985 48.872 154.849 49.016C154.873 49.112 154.885 49.232 154.885 49.376C154.885 49.496 154.813 49.796 154.669 50.276C154.549 50.756 154.453 51.068 154.381 51.212C154.189 51.404 153.649 51.548 152.761 51.644L159.637 71.552L163.057 71.84C163.057 72.512 162.853 73.232 162.445 74H154.165L154.057 72.74C154.609 72.452 155.413 72.2 156.469 71.984L154.633 66.836H144.589L142.897 71.552L145.813 71.84C145.813 72.512 145.609 73.232 145.201 74H136.921L136.813 72.74C137.749 72.404 138.745 72.14 139.801 71.948L146.785 51.536C144.649 51.296 143.149 51.008 142.285 50.672L142.429 49.556ZM151.789 58.808L149.881 51.752C149.737 51.728 149.533 51.716 149.269 51.716L147.325 59.06L145.237 64.532H153.985L151.789 58.808ZM171.094 51.284L170.914 59.96H176.602L176.89 57.368C177.562 57.368 178.282 57.572 179.05 57.98V64.82L177.79 64.928C177.43 63.896 177.19 63.032 177.07 62.336H170.914C170.866 64.424 170.818 67.508 170.77 71.588H179.014L179.878 68.204L181.966 68.348C182.302 69.716 182.47 70.928 182.47 71.984C182.47 73.016 182.446 73.688 182.398 74H164.902L164.794 72.74C165.85 72.356 166.87 72.08 167.854 71.912C167.71 62.552 167.59 55.592 167.494 51.032C166.966 50.984 165.91 50.696 164.326 50.168L164.506 48.8H181.858C181.906 49.112 181.93 49.592 181.93 50.24C181.93 51.56 181.762 52.988 181.426 54.524C180.898 54.644 180.202 54.704 179.338 54.704L178.474 51.284H171.094ZM204.42 68.348C204.492 68.492 204.588 69.044 204.708 70.004C204.852 70.964 204.924 71.78 204.924 72.452C204.924 73.1 204.888 73.616 204.816 74H187.716L187.608 72.74C188.736 72.332 189.756 72.056 190.668 71.912C190.524 62.456 190.404 55.484 190.308 50.996C189.684 50.9 188.628 50.612 187.14 50.132L187.32 48.8H195.996C196.404 49.472 196.608 50.18 196.608 50.924C195.312 50.972 194.376 51.008 193.8 51.032C193.752 55.64 193.704 59.84 193.656 63.632C193.632 67.4 193.608 70.052 193.584 71.588H201.468L202.332 68.168C203.532 68.168 204.228 68.228 204.42 68.348Z" fill="white"/>
<path d="M23.824 4.176L23.751 3.17867L23.0807 3.22772L22.8729 3.86698L23.824 4.176ZM16.408 27V28H17.1345L17.3591 27.309L16.408 27ZM12.664 27L11.7223 27.3364L11.9594 28H12.664V27ZM4.42 3.924L5.36171 3.58757L5.17125 3.05444L4.61612 2.94342L4.42 3.924ZM1.18 3.06L0.183653 2.9746L0.115534 3.76932L0.875225 4.01242L1.18 3.06ZM1.288 1.8V0.799998H0.370047L0.291653 1.7146L1.288 1.8ZM10.648 1.8L11.5311 1.33084L11.2491 0.799998H10.648V1.8ZM11.26 3.96L11.3211 4.95813L12.26 4.90065V3.96H11.26ZM8.02 4.176L7.94702 3.17867L6.66324 3.2726L7.07168 4.4933L8.02 4.176ZM14.392 23.22L13.4437 23.5373L13.6721 24.22H14.392V23.22ZM14.572 23.22V24.22H15.3208L15.5316 23.5015L14.572 23.22ZM20.584 3.924L21.5379 4.22404L21.8888 3.10853L20.7323 2.93506L20.584 3.924ZM17.2 3.06L16.2037 2.9746L16.1364 3.75955L16.8838 4.00868L17.2 3.06ZM17.308 1.8V0.799998H16.39L16.3117 1.7146L17.308 1.8ZM26.344 1.8L27.2271 1.33084L26.9451 0.799998H26.344V1.8ZM26.956 3.96L27.0211 4.95788L27.956 4.8969V3.96H26.956ZM22.8729 3.86698L15.4569 26.691L17.3591 27.309L24.7751 4.48502L22.8729 3.86698ZM16.408 26H12.664V28H16.408V26ZM13.6057 26.6636L5.36171 3.58757L3.47829 4.26043L11.7223 27.3364L13.6057 26.6636ZM4.61612 2.94342C3.70149 2.76049 2.65865 2.48321 1.48478 2.10757L0.875225 4.01242C2.10136 4.40478 3.21851 4.7035 4.22388 4.90458L4.61612 2.94342ZM2.17635 3.1454L2.28435 1.8854L0.291653 1.7146L0.183653 2.9746L2.17635 3.1454ZM1.288 2.8H10.648V0.799998H1.288V2.8ZM9.76488 2.26915C10.118 2.93391 10.26 3.49265 10.26 3.96H12.26C12.26 3.08335 11.994 2.20209 11.5311 1.33084L9.76488 2.26915ZM11.1989 2.96187C10.0197 3.03407 8.93565 3.10633 7.94702 3.17867L8.09298 5.17333C9.07235 5.10167 10.1483 5.02993 11.3211 4.95813L11.1989 2.96187ZM7.07168 4.4933L13.4437 23.5373L15.3403 22.9027L8.96832 3.8587L7.07168 4.4933ZM14.392 24.22H14.572V22.22H14.392V24.22ZM15.5316 23.5015C16.0561 21.7134 18.0561 15.294 21.5379 4.22404L19.6301 3.62396C16.1519 14.682 14.1439 21.1266 13.6124 22.9385L15.5316 23.5015ZM20.7323 2.93506C19.8471 2.80228 18.7777 2.53181 17.5162 2.11132L16.8838 4.00868C18.2143 4.45219 19.4009 4.75772 20.4357 4.91294L20.7323 2.93506ZM18.1963 3.1454L18.3043 1.8854L16.3117 1.7146L16.2037 2.9746L18.1963 3.1454ZM17.308 2.8H26.344V0.799998H17.308V2.8ZM25.4609 2.26915C25.814 2.93391 25.956 3.49265 25.956 3.96H27.956C27.956 3.08335 27.69 2.20209 27.2271 1.33084L25.4609 2.26915ZM26.8909 2.96212C25.7846 3.03427 24.7379 3.10645 23.751 3.17867L23.897 5.17333C24.8781 5.10155 25.9194 5.02973 27.0211 4.95788L26.8909 2.96212ZM30.9483 2.556L30.6321 1.60732L30.0369 1.80574L29.9566 2.42803L30.9483 2.556ZM34.4763 2.088L34.5635 3.08427L34.5758 3.08304L34.4763 2.088ZM43.3683 2.016L44.3385 1.77346L44.1795 1.13739L43.5327 1.02961L43.3683 2.016ZM43.1883 3.276L42.2305 2.98865L42.2238 3.01091L42.2182 3.03346L43.1883 3.276ZM42.9003 4.212L43.6075 4.91911L43.7222 4.80436L43.7948 4.65921L42.9003 4.212ZM41.2803 4.644L41.1729 3.64979L39.9256 3.78463L40.3351 4.97046L41.2803 4.644ZM48.1563 24.552L47.2111 24.8785L47.4237 25.4938L48.0724 25.5485L48.1563 24.552ZM51.5763 24.84H52.5763V23.9207L51.6603 23.8435L51.5763 24.84ZM50.9643 27V28H51.5654L51.8475 27.4692L50.9643 27ZM42.6843 27L41.688 27.0854L41.7664 28H42.6843V27ZM42.5763 25.74L42.1138 24.8534L41.5231 25.1616L41.58 25.8254L42.5763 25.74ZM44.9883 24.984L45.1887 25.9637L46.3171 25.7329L45.9302 24.6481L44.9883 24.984ZM43.1523 19.836L44.0942 19.5001L43.8574 18.836H43.1523V19.836ZM33.1083 19.836V18.836H32.4047L32.1671 19.4983L33.1083 19.836ZM31.4163 24.552L30.4751 24.2143L30.0421 25.4211L31.3181 25.5472L31.4163 24.552ZM34.3323 24.84H35.3323V23.9339L34.4306 23.8448L34.3323 24.84ZM33.7203 27V28H34.3214L34.6035 27.4692L33.7203 27ZM25.4403 27L24.444 27.0854L24.5224 28H25.4403V27ZM25.3323 25.74L24.9945 24.7988L24.2703 25.0588L24.336 25.8254L25.3323 25.74ZM28.3203 24.948L28.4992 25.9319L29.0765 25.8269L29.2665 25.2717L28.3203 24.948ZM35.3043 4.536L36.2505 4.85973L36.6537 3.68132L35.416 3.54225L35.3043 4.536ZM30.8043 3.672L29.8126 3.54403L29.7124 4.32031L30.4419 4.604L30.8043 3.672ZM40.3083 11.808L39.343 12.069L39.3564 12.1184L39.3747 12.1662L40.3083 11.808ZM38.4003 4.752L39.3657 4.49097L39.1981 3.87116L38.5647 3.7656L38.4003 4.752ZM37.7883 4.716V3.716H37.0186L36.8216 4.46011L37.7883 4.716ZM35.8443 12.06L36.7786 12.4165L36.7975 12.3671L36.811 12.3159L35.8443 12.06ZM33.7563 17.532L32.8221 17.1755L32.3044 18.532H33.7563V17.532ZM42.5043 17.532V18.532H43.9591L43.438 17.1738L42.5043 17.532ZM31.2646 3.50468C31.3786 3.46666 31.6919 3.40111 32.2858 3.32231C32.8529 3.24709 33.6104 3.16759 34.5635 3.08419L34.3892 1.09181C33.4223 1.17641 32.6318 1.25891 32.0228 1.33968C31.4408 1.41689 30.95 1.50134 30.6321 1.60732L31.2646 3.50468ZM34.5758 3.08304C36.4702 2.8936 38.1763 2.8 39.6963 2.8V0.799998C38.0964 0.799998 36.3225 0.898394 34.3768 1.09296L34.5758 3.08304ZM39.6963 2.8C41.2617 2.8 42.4212 2.87193 43.2039 3.00239L43.5327 1.02961C42.5875 0.872065 41.299 0.799998 39.6963 0.799998V2.8ZM42.3982 2.25854C42.3962 2.25068 42.3981 2.2557 42.4003 2.2775C42.4024 2.29884 42.4043 2.33108 42.4043 2.376H44.4043C44.4043 2.18373 44.3891 1.97577 44.3385 1.77346L42.3982 2.25854ZM42.4043 2.376C42.4043 2.32201 42.4108 2.29837 42.4052 2.33079C42.4012 2.35449 42.3929 2.39542 42.378 2.45763C42.3481 2.5819 42.3 2.75699 42.2305 2.98865L44.1462 3.56335C44.2207 3.315 44.2806 3.1001 44.3227 2.92437C44.3572 2.78072 44.4043 2.56906 44.4043 2.376H42.4043ZM42.2182 3.03346C42.1606 3.26398 42.1114 3.44324 42.0706 3.57591C42.0258 3.72127 42.0033 3.76995 42.0059 3.76479L43.7948 4.65921C43.9244 4.40004 44.0436 3.97827 44.1585 3.51854L42.2182 3.03346ZM42.1932 3.50489C42.2593 3.43881 42.3047 3.42404 42.2739 3.43817C42.2493 3.44947 42.1933 3.4712 42.0937 3.49776C41.8931 3.55125 41.5923 3.60445 41.1729 3.64979L41.3878 5.63821C41.8564 5.58755 42.2696 5.52075 42.609 5.43023C42.9042 5.3515 43.3123 5.21426 43.6075 4.91911L42.1932 3.50489ZM40.3351 4.97046L47.2111 24.8785L49.1016 24.2255L42.2256 4.31753L40.3351 4.97046ZM48.0724 25.5485L51.4924 25.8365L51.6603 23.8435L48.2403 23.5555L48.0724 25.5485ZM50.5763 24.84C50.5763 25.3074 50.4344 25.8661 50.0812 26.5308L51.8475 27.4692C52.3103 26.5979 52.5763 25.7166 52.5763 24.84H50.5763ZM50.9643 26H42.6843V28H50.9643V26ZM43.6807 26.9146L43.5727 25.6546L41.58 25.8254L41.688 27.0854L43.6807 26.9146ZM43.0389 26.6266C43.4694 26.402 44.1678 26.1725 45.1887 25.9637L44.7879 24.0043C43.6969 24.2275 42.7873 24.502 42.1138 24.8534L43.0389 26.6266ZM45.9302 24.6481L44.0942 19.5001L42.2105 20.1719L44.0465 25.3199L45.9302 24.6481ZM43.1523 18.836H33.1083V20.836H43.1523V18.836ZM32.1671 19.4983L30.4751 24.2143L32.3576 24.8897L34.0496 20.1737L32.1671 19.4983ZM31.3181 25.5472L34.2341 25.8352L34.4306 23.8448L31.5146 23.5568L31.3181 25.5472ZM33.3323 24.84C33.3323 25.3074 33.1904 25.8661 32.8372 26.5308L34.6035 27.4692C35.0663 26.5979 35.3323 25.7166 35.3323 24.84H33.3323ZM33.7203 26H25.4403V28H33.7203V26ZM26.4367 26.9146L26.3287 25.6546L24.336 25.8254L24.444 27.0854L26.4367 26.9146ZM25.6702 26.6812C26.5506 26.3652 27.4931 26.1148 28.4992 25.9319L28.1415 23.9641C27.0356 24.1652 25.9861 24.4428 24.9945 24.7988L25.6702 26.6812ZM29.2665 25.2717L36.2505 4.85973L34.3582 4.21227L27.3742 24.6243L29.2665 25.2717ZM35.416 3.54225C33.2832 3.30261 31.8983 3.02448 31.1668 2.74L30.4419 4.604C31.4384 4.99152 33.0535 5.28939 35.1927 5.52975L35.416 3.54225ZM31.7961 3.79997L31.9401 2.68397L29.9566 2.42803L29.8126 3.54403L31.7961 3.79997ZM41.2737 11.547L39.3657 4.49097L37.435 5.01303L39.343 12.069L41.2737 11.547ZM38.5647 3.7656C38.3395 3.72807 38.071 3.716 37.7883 3.716V5.716C38.0337 5.716 38.1732 5.72793 38.2359 5.73839L38.5647 3.7656ZM36.8216 4.46011L34.8776 11.8041L36.811 12.3159L38.755 4.97189L36.8216 4.46011ZM34.9101 11.7035L32.8221 17.1755L34.6906 17.8885L36.7786 12.4165L34.9101 11.7035ZM33.7563 18.532H42.5043V16.532H33.7563V18.532ZM43.438 17.1738L41.242 11.4498L39.3747 12.1662L41.5707 17.8902L43.438 17.1738ZM59.6136 6.264L60.4649 5.73932L58.6807 2.84443L58.6138 6.24432L59.6136 6.264ZM59.2536 24.552L58.2538 24.5323L58.2356 25.4596L59.1588 25.5475L59.2536 24.552ZM62.2776 24.84H63.2776V23.9307L62.3724 23.8445L62.2776 24.84ZM61.6656 27V28H62.2667L62.5487 27.4692L61.6656 27ZM53.3856 27L52.3893 27.0854L52.4677 28H53.3856V27ZM53.2776 25.74L52.9614 24.7913L52.214 25.0405L52.2813 25.8254L53.2776 25.74ZM56.5896 24.876L56.7456 25.8638L57.6163 25.7263L57.5892 24.8452L56.5896 24.876ZM56.3376 15.228L55.3378 15.2477L55.3379 15.2526L56.3376 15.228ZM56.0856 3.924L57.0853 3.89698L57.0628 3.0659L56.2416 2.93624L56.0856 3.924ZM52.8456 3.06L51.8493 2.9746L51.7828 3.75031L52.5185 4.00499L52.8456 3.06ZM52.9536 1.8V0.799998H52.0357L51.9573 1.7146L52.9536 1.8ZM60.0816 1.8L60.9292 1.26935L60.6354 0.799998H60.0816V1.8ZM73.2216 22.788L72.374 23.3187L74.3413 26.4609L74.2211 22.7556L73.2216 22.788ZM72.6096 3.924L73.6091 3.89157L73.5831 3.09043L72.7955 2.94143L72.6096 3.924ZM69.4056 3.06L68.4093 2.9746L68.3416 3.76423L69.0949 4.01049L69.4056 3.06ZM69.5136 1.8V0.799998H68.5957L68.5173 1.7146L69.5136 1.8ZM78.5136 1.8L79.3967 1.33084L79.1147 0.799998H78.5136V1.8ZM79.1256 3.96L79.2054 4.95681L80.1256 4.88319V3.96H79.1256ZM76.2456 4.104V3.104H75.2612L75.2457 4.08828L76.2456 4.104ZM75.8856 27V28H76.87L76.8855 27.0157L75.8856 27ZM72.3936 27L71.5423 27.5247L71.8353 28H72.3936V27ZM58.6138 6.24432L58.2538 24.5323L60.2534 24.5717L60.6134 6.28368L58.6138 6.24432ZM59.1588 25.5475L62.1828 25.8355L62.3724 23.8445L59.3484 23.5565L59.1588 25.5475ZM61.2776 24.84C61.2776 25.3074 61.1357 25.8661 60.7825 26.5308L62.5487 27.4692C63.0116 26.5979 63.2776 25.7166 63.2776 24.84H61.2776ZM61.6656 26H53.3856V28H61.6656V26ZM54.382 26.9146L54.274 25.6546L52.2813 25.8254L52.3893 27.0854L54.382 26.9146ZM53.5939 26.6887C54.8599 26.2667 55.9071 25.9962 56.7456 25.8638L56.4337 23.8882C55.4481 24.0438 54.2874 24.3493 52.9614 24.7913L53.5939 26.6887ZM57.5892 24.8452C57.5413 23.2889 57.4573 20.076 57.3373 15.2034L55.3379 15.2526C55.4579 20.124 55.542 23.3431 55.5901 24.9068L57.5892 24.8452ZM57.3374 15.2083C57.2414 10.3355 57.1574 6.56464 57.0853 3.89698L55.086 3.95102C55.1579 6.61136 55.2418 10.3765 55.3378 15.2477L57.3374 15.2083ZM56.2416 2.93624C55.4067 2.80441 54.3866 2.53521 53.1727 2.11501L52.5185 4.00499C53.8006 4.44879 54.9406 4.75559 55.9297 4.91176L56.2416 2.93624ZM53.842 3.1454L53.95 1.8854L51.9573 1.7146L51.8493 2.9746L53.842 3.1454ZM52.9536 2.8H60.0816V0.799998H52.9536V2.8ZM59.234 2.33065L72.374 23.3187L74.0692 22.2573L60.9292 1.26935L59.234 2.33065ZM74.2211 22.7556L73.6091 3.89157L71.6102 3.95642L72.2222 22.8204L74.2211 22.7556ZM72.7955 2.94143C71.964 2.78411 70.94 2.50955 69.7164 2.1095L69.0949 4.01049C70.3672 4.42645 71.4793 4.72789 72.4237 4.90657L72.7955 2.94143ZM70.402 3.1454L70.51 1.8854L68.5173 1.7146L68.4093 2.9746L70.402 3.1454ZM69.5136 2.8H78.5136V0.799998H69.5136V2.8ZM77.6305 2.26915C77.9837 2.93391 78.1256 3.49265 78.1256 3.96H80.1256C80.1256 3.08335 79.8596 2.20209 79.3967 1.33084L77.6305 2.26915ZM79.0459 2.96318C77.8574 3.05826 76.9273 3.104 76.2456 3.104V5.104C77.004 5.104 77.9939 5.05373 79.2054 4.95681L79.0459 2.96318ZM75.2457 4.08828L74.8857 26.9843L76.8855 27.0157L77.2455 4.11972L75.2457 4.08828ZM75.8856 26H72.3936V28H75.8856V26ZM73.2449 26.4753L60.4649 5.73932L58.7623 6.78867L71.5423 27.5247L73.2449 26.4753ZM2.836 74H1.836V75H2.836V74ZM2.836 48.116V47.116H1.836V48.116H2.836ZM28.72 48.116H29.72V47.116H28.72V48.116ZM28.72 74V75H29.72V74H28.72ZM4.996 71.84H3.996V72.84H4.996V71.84ZM26.56 71.84V72.84H27.56V71.84H26.56ZM26.56 50.276H27.56V49.276H26.56V50.276ZM4.996 50.276V49.276H3.996V50.276H4.996ZM3.836 74V48.116H1.836V74H3.836ZM2.836 49.116H28.72V47.116H2.836V49.116ZM27.72 48.116V74H29.72V48.116H27.72ZM28.72 73H2.836V75H28.72V73ZM4.996 72.84H26.56V70.84H4.996V72.84ZM27.56 71.84V50.276H25.56V71.84H27.56ZM26.56 49.276H4.996V51.276H26.56V49.276ZM3.996 50.276V71.84H5.996V50.276H3.996ZM67.314 51.284V50.284H66.1102L66.3309 51.4673L67.314 51.284ZM71.094 71.552L70.1109 71.7353L70.2485 72.4733L70.9955 72.5471L71.094 71.552ZM74.37 71.876H75.37V70.97L74.4684 70.8809L74.37 71.876ZM73.758 74V75H74.3591L74.6411 74.4692L73.758 74ZM65.478 74L64.4816 74.0854L64.56 75H65.478V74ZM65.37 72.74L64.9724 71.8224L64.3122 72.1085L64.3736 72.8254L65.37 72.74ZM68.034 71.984L68.2129 72.9679L69.2052 72.7874L69.0163 71.7966L68.034 71.984ZM64.182 51.788L65.1643 51.6006L63.2078 51.562L64.182 51.788ZM59.43 72.272V73.272H60.2245L60.4041 72.498L59.43 72.272ZM55.866 72.272L54.9132 72.5757L55.1351 73.272H55.866V72.272ZM49.314 51.716L50.2667 51.4123L48.3246 51.5706L49.314 51.716ZM46.398 71.552L45.4086 71.4066L45.2554 72.4489L46.3043 72.5476L46.398 71.552ZM49.458 71.84H50.458V70.9297L49.5517 70.8444L49.458 71.84ZM48.846 74V75H49.4471L49.7291 74.4692L48.846 74ZM40.566 74L39.5696 74.0854L39.648 75H40.566V74ZM40.458 72.74L40.1162 71.8002L39.3962 72.062L39.4616 72.8254L40.458 72.74ZM43.626 71.876L43.8049 72.8599L44.5075 72.7321L44.6147 72.026L43.626 71.876ZM46.794 50.996L47.7827 51.146L47.9333 50.1533L46.9399 50.0067L46.794 50.996ZM43.302 50.24L42.3069 50.1405L42.2274 50.9359L42.9857 51.1887L43.302 50.24ZM43.446 48.8V47.8H42.541L42.4509 48.7005L43.446 48.8ZM51.834 48.8L52.7944 48.5213L52.5851 47.8H51.834V48.8ZM57.558 68.528L56.5976 68.8067L56.8069 69.528H57.558V68.528ZM57.702 68.528V69.528H58.501L58.6773 68.7487L57.702 68.528ZM62.166 48.8V47.8H61.367L61.1906 48.5793L62.166 48.8ZM70.194 48.8L71.0771 48.3308L70.7951 47.8H70.194V48.8ZM70.806 51.032L70.913 52.0263L71.806 51.9301V51.032H70.806ZM66.3309 51.4673L70.1109 71.7353L72.077 71.3687L68.297 51.1007L66.3309 51.4673ZM70.9955 72.5471L74.2715 72.8711L74.4684 70.8809L71.1924 70.5569L70.9955 72.5471ZM73.37 71.876C73.37 72.3141 73.2313 72.86 72.8749 73.5308L74.6411 74.4692C75.1007 73.604 75.37 72.7339 75.37 71.876H73.37ZM73.758 73H65.478V75H73.758V73ZM66.4743 73.9146L66.3663 72.6546L64.3736 72.8254L64.4816 74.0854L66.4743 73.9146ZM65.7676 73.6576C66.3972 73.3847 67.2066 73.1508 68.2129 72.9679L67.8551 71.0001C66.7493 71.2012 65.7828 71.4713 64.9724 71.8224L65.7676 73.6576ZM69.0163 71.7966L65.1643 51.6006L63.1997 51.9754L67.0517 72.1714L69.0163 71.7966ZM63.2078 51.562L58.4558 72.046L60.4041 72.498L65.1561 52.014L63.2078 51.562ZM59.43 71.272H55.866V73.272H59.43V71.272ZM56.8187 71.9683L50.2667 51.4123L48.3612 52.0197L54.9132 72.5757L56.8187 71.9683ZM48.3246 51.5706L45.4086 71.4066L47.3873 71.6974L50.3033 51.8614L48.3246 51.5706ZM46.3043 72.5476L49.3643 72.8356L49.5517 70.8444L46.4917 70.5564L46.3043 72.5476ZM48.458 71.84C48.458 72.3074 48.316 72.8661 47.9629 73.5308L49.7291 74.4692C50.1919 73.5979 50.458 72.7166 50.458 71.84H48.458ZM48.846 73H40.566V75H48.846V73ZM41.5623 73.9146L41.4543 72.6546L39.4616 72.8254L39.5696 74.0854L41.5623 73.9146ZM40.7997 73.6798C41.8052 73.3141 42.8068 73.0413 43.8049 72.8599L43.4471 70.8921C42.3331 71.0947 41.2227 71.3979 40.1162 71.8002L40.7997 73.6798ZM44.6147 72.026L47.7827 51.146L45.8053 50.846L42.6373 71.726L44.6147 72.026ZM46.9399 50.0067C45.5028 49.7947 44.4033 49.553 43.6182 49.2913L42.9857 51.1887C43.9286 51.503 45.1572 51.7653 46.648 51.9853L46.9399 50.0067ZM44.297 50.3395L44.441 48.8995L42.4509 48.7005L42.3069 50.1405L44.297 50.3395ZM43.446 49.8H51.834V47.8H43.446V49.8ZM50.8736 49.0787L56.5976 68.8067L58.5184 68.2493L52.7944 48.5213L50.8736 49.0787ZM57.558 69.528H57.702V67.528H57.558V69.528ZM58.6773 68.7487L63.1413 49.0207L61.1906 48.5793L56.7266 68.3073L58.6773 68.7487ZM62.166 49.8H70.194V47.8H62.166V49.8ZM69.3109 49.2692C69.6579 49.9225 69.806 50.5063 69.806 51.032H71.806C71.806 50.1177 71.546 49.2135 71.0771 48.3308L69.3109 49.2692ZM70.6989 50.0377C69.1458 50.205 68.0258 50.284 67.314 50.284V52.284C68.1381 52.284 69.3461 52.195 70.913 52.0263L70.6989 50.0377ZM83.6824 51.104V50.104H82.6999L82.6826 51.0864L83.6824 51.104ZM83.3224 71.552L82.3226 71.5344L82.3063 72.4597L83.2276 72.5475L83.3224 71.552ZM86.3464 71.84H87.3464V70.9307L86.4412 70.8445L86.3464 71.84ZM85.7344 74V75H86.3355L86.6176 74.4692L85.7344 74ZM77.4544 74L76.4581 74.0854L76.5365 75H77.4544V74ZM77.3464 72.74L77.0179 71.7955L76.2837 72.0509L76.3501 72.8254L77.3464 72.74ZM80.6224 71.876L80.7975 72.8606L81.6485 72.7093L81.622 71.8452L80.6224 71.876ZM80.3704 62.228L79.3706 62.2477L79.3707 62.2526L80.3704 62.228ZM80.1184 50.924L81.1181 50.897L81.0965 50.0998L80.3146 49.9434L80.1184 50.924ZM76.8784 50.06L75.8821 49.9746L75.814 50.7693L76.5737 51.0124L76.8784 50.06ZM76.9864 48.8V47.8H76.0685L75.9901 48.7146L76.9864 48.8ZM85.9864 48.8L86.8696 48.3308L86.5875 47.8H85.9864V48.8ZM86.5984 50.96L86.6766 51.9569L87.5984 51.8846V50.96H86.5984ZM82.6826 51.0864L82.3226 71.5344L84.3223 71.5696L84.6823 51.1216L82.6826 51.0864ZM83.2276 72.5475L86.2516 72.8355L86.4412 70.8445L83.4172 70.5565L83.2276 72.5475ZM85.3464 71.84C85.3464 72.3074 85.2045 72.8661 84.8513 73.5308L86.6176 74.4692C87.0804 73.5979 87.3464 72.7166 87.3464 71.84H85.3464ZM85.7344 73H77.4544V75H85.7344V73ZM78.4508 73.9146L78.3428 72.6546L76.3501 72.8254L76.4581 74.0854L78.4508 73.9146ZM77.675 73.6845C78.7322 73.3168 79.7729 73.0427 80.7975 72.8606L80.4474 70.8914C79.312 71.0933 78.1687 71.3952 77.0179 71.7955L77.675 73.6845ZM81.622 71.8452C81.5741 70.2889 81.4901 67.076 81.3701 62.2034L79.3707 62.2526C79.4907 67.124 79.5748 70.3431 79.6229 71.9068L81.622 71.8452ZM81.3702 62.2083C81.2742 57.3355 81.1902 53.5646 81.1181 50.897L79.1188 50.951C79.1907 53.6114 79.2746 57.3765 79.3706 62.2477L81.3702 62.2083ZM80.3146 49.9434C79.3999 49.7605 78.3571 49.4832 77.1832 49.1076L76.5737 51.0124C77.7998 51.4048 78.9169 51.7035 79.9223 51.9046L80.3146 49.9434ZM77.8748 50.1454L77.9828 48.8854L75.9901 48.7146L75.8821 49.9746L77.8748 50.1454ZM76.9864 49.8H85.9864V47.8H76.9864V49.8ZM85.1033 49.2692C85.4565 49.9339 85.5984 50.4926 85.5984 50.96H87.5984C87.5984 50.0834 87.3324 49.2021 86.8696 48.3308L85.1033 49.2692ZM86.5202 49.9631C85.3069 50.0582 84.3645 50.104 83.6824 50.104V52.104C84.4404 52.104 85.442 52.0538 86.6766 51.9569L86.5202 49.9631ZM91.8502 51.608L91.066 50.9875L91.0618 50.9929L91.8502 51.608ZM108.158 50.852H109.158V50.3374L108.739 50.0383L108.158 50.852ZM107.654 55.964L107.864 56.9418L108.532 56.7987L108.641 56.1247L107.654 55.964ZM105.566 56.072L104.594 56.3072L104.779 57.072H105.566V56.072ZM104.486 51.608L105.458 51.3728L105.305 50.7414L104.666 50.6244L104.486 51.608ZM95.3782 51.932L95.034 50.9931L95.0325 50.9937L95.3782 51.932ZM94.6942 52.184L94.3485 51.2457L94.018 51.3674L93.8367 51.6695L94.6942 52.184ZM94.1542 53.264L95.058 53.6921L95.0621 53.6833L95.0661 53.6744L94.1542 53.264ZM93.2902 56.18L92.3183 55.9448L92.3165 55.9523L92.3148 55.9597L93.2902 56.18ZM94.4422 68.816L93.5675 69.3008L93.572 69.3087L94.4422 68.816ZM103.766 71.264L104.142 72.1907L104.178 72.176L104.213 72.1584L103.766 71.264ZM104.81 70.724L105.276 71.6089L105.711 71.3802L105.795 70.8964L104.81 70.724ZM105.566 66.404L105.618 65.4053L104.734 65.3596L104.581 66.2316L105.566 66.404ZM107.654 66.512L108.644 66.3679L108.526 65.5557L107.706 65.5133L107.654 66.512ZM108.194 72.524L108.8 73.3194L109.194 73.0193V72.524H108.194ZM104.918 73.784L104.656 72.8189L104.653 72.8199L104.918 73.784ZM99.8782 73.468C96.5723 73.468 94.2506 72.442 92.7223 70.5239C91.1595 68.5624 90.2942 65.5059 90.2942 61.184H88.2942C88.2942 65.7181 89.1929 69.3036 91.1581 71.7701C93.1578 74.28 96.1281 75.468 99.8782 75.468V73.468ZM90.2942 61.184C90.2942 57.0975 91.1265 54.1612 92.6386 52.2231L91.0618 50.9929C89.1659 53.4228 88.2942 56.8705 88.2942 61.184H90.2942ZM92.6344 52.2285C94.1112 50.362 96.5166 49.332 100.094 49.332V47.332C96.1358 47.332 93.0452 48.486 91.066 50.9875L92.6344 52.2285ZM100.094 49.332C102.92 49.332 105.403 50.1127 107.577 51.6657L108.739 50.0383C106.21 48.2313 103.316 47.332 100.094 47.332V49.332ZM107.158 50.852C107.158 52.1212 106.999 53.7667 106.667 55.8033L108.641 56.1247C108.982 54.0333 109.158 52.2708 109.158 50.852H107.158ZM107.445 54.9862C107.23 55.0322 106.642 55.072 105.566 55.072V57.072C106.602 57.072 107.406 57.0398 107.864 56.9418L107.445 54.9862ZM106.538 55.8368L105.458 51.3728L103.514 51.8431L104.594 56.3072L106.538 55.8368ZM104.666 50.6244C102.937 50.3077 101.502 50.14 100.382 50.14V52.14C101.327 52.14 102.627 52.2843 104.306 52.5916L104.666 50.6244ZM100.382 50.14C98.3955 50.14 96.6068 50.4164 95.034 50.9931L95.7225 52.8709C97.0296 52.3916 98.5769 52.14 100.382 52.14V50.14ZM95.0325 50.9937L94.3485 51.2457L95.0399 53.1223L95.7239 52.8703L95.0325 50.9937ZM93.8367 51.6695C93.6621 51.9606 93.463 52.3631 93.2423 52.8536L95.0661 53.6744C95.2774 53.2049 95.4384 52.8874 95.5517 52.6985L93.8367 51.6695ZM93.2505 52.8359C92.983 53.4007 92.6739 54.4749 92.3183 55.9448L94.2622 56.4152C94.6265 54.9091 94.8935 54.0393 95.058 53.6921L93.2505 52.8359ZM92.3148 55.9597C91.9621 57.5216 91.7862 59.1196 91.7862 60.752H93.7862C93.7862 59.2644 93.9463 57.8144 94.2657 56.4003L92.3148 55.9597ZM91.7862 60.752C91.7862 64.2293 92.3509 67.1055 93.5676 69.3007L95.3169 68.3313C94.3255 66.5425 93.7862 64.0427 93.7862 60.752H91.7862ZM93.572 69.3087C94.8922 71.64 97.0286 72.804 99.8062 72.804V70.804C97.6878 70.804 96.2483 69.976 95.3124 68.3233L93.572 69.3087ZM99.8062 72.804C101.598 72.804 103.073 72.624 104.142 72.1907L103.391 70.3373C102.683 70.624 101.518 70.804 99.8062 70.804V72.804ZM104.213 72.1584C104.463 72.0337 104.818 71.8498 105.276 71.6089L104.344 69.8391C103.89 70.0782 103.549 70.2543 103.319 70.3696L104.213 72.1584ZM105.795 70.8964L106.551 66.5764L104.581 66.2316L103.825 70.5516L105.795 70.8964ZM105.515 67.4027L107.603 67.5107L107.706 65.5133L105.618 65.4053L105.515 67.4027ZM106.665 66.6561C107.021 69.106 107.194 71.0566 107.194 72.524H109.194C109.194 70.9194 109.007 68.862 108.644 66.3679L106.665 66.6561ZM107.588 71.7286C107.45 71.8336 107.157 71.9941 106.638 72.1937C106.135 72.3871 105.478 72.596 104.656 72.8189L105.18 74.7491C106.039 74.516 106.767 74.2869 107.356 74.0603C107.929 73.8399 108.434 73.5984 108.8 73.3194L107.588 71.7286ZM104.653 72.8199C103.083 73.2523 101.492 73.468 99.8782 73.468V75.468C101.673 75.468 103.442 75.2277 105.184 74.7481L104.653 72.8199ZM117.512 59.564L116.512 59.5388L116.486 60.5609L117.509 60.564L117.512 59.564ZM129.248 59.6L129.245 60.6L130.264 60.6031L130.248 59.5836L129.248 59.6ZM129.032 50.924L130.031 50.8904L130.004 50.0903L129.218 49.9414L129.032 50.924ZM125.828 50.06L124.831 49.9746L124.764 50.7642L125.517 51.0105L125.828 50.06ZM125.936 48.8V47.8H125.018L124.939 48.7146L125.936 48.8ZM134.936 48.8L135.819 48.3308L135.537 47.8H134.936V48.8ZM135.548 50.96L135.627 51.9568L136.548 51.8832V50.96H135.548ZM132.668 51.104V50.104H131.687L131.668 51.0846L132.668 51.104ZM132.272 71.552L131.272 71.5326L131.254 72.4596L132.177 72.5475L132.272 71.552ZM135.296 71.84H136.296V70.9307L135.391 70.8445L135.296 71.84ZM134.684 74V75H135.285L135.567 74.4692L134.684 74ZM126.404 74L125.407 74.0854L125.486 75H126.404V74ZM126.296 72.74L125.973 71.7934L125.233 72.0456L125.299 72.8254L126.296 72.74ZM129.608 71.876L129.783 72.8606L130.632 72.7096L130.607 71.8472L129.608 71.876ZM129.32 61.868L130.319 61.8392L130.291 60.868H129.32V61.868ZM117.44 61.868V60.868H116.451L116.44 61.8569L117.44 61.868ZM117.368 71.552H116.368V72.4613L117.273 72.5475L117.368 71.552ZM120.392 71.84H121.392V70.9307L120.487 70.8445L120.392 71.84ZM119.78 74V75H120.381L120.663 74.4692L119.78 74ZM111.5 74L110.503 74.0854L110.582 75H111.5V74ZM111.392 72.74L111.069 71.7934L110.329 72.0456L110.395 72.8254L111.392 72.74ZM114.704 71.876L114.879 72.8606L115.726 72.71L115.703 71.8502L114.704 71.876ZM114.128 50.924L115.127 50.8931L115.102 50.0907L114.314 49.9414L114.128 50.924ZM110.924 50.06L109.927 49.9746L109.86 50.7642L110.613 51.0105L110.924 50.06ZM111.032 48.8V47.8H110.114L110.035 48.7146L111.032 48.8ZM120.032 48.8L120.915 48.3308L120.633 47.8H120.032V48.8ZM120.644 50.96L120.723 51.9568L121.644 51.8832V50.96H120.644ZM117.764 51.104V50.104H116.802L116.765 51.0646L117.764 51.104ZM117.509 60.564L129.245 60.6L129.251 58.6L117.515 58.564L117.509 60.564ZM130.248 59.5836C130.2 56.65 130.127 53.7523 130.031 50.8904L128.032 50.9576C128.128 53.8077 128.2 56.694 128.248 59.6164L130.248 59.5836ZM129.218 49.9414C128.386 49.7841 127.362 49.5095 126.138 49.1095L125.517 51.0105C126.789 51.4265 127.901 51.7279 128.846 51.9066L129.218 49.9414ZM126.824 50.1454L126.932 48.8854L124.939 48.7146L124.831 49.9746L126.824 50.1454ZM125.936 49.8H134.936V47.8H125.936V49.8ZM134.053 49.2692C134.406 49.9339 134.548 50.4926 134.548 50.96H136.548C136.548 50.0834 136.282 49.2021 135.819 48.3308L134.053 49.2692ZM135.468 49.9632C134.279 50.0583 133.349 50.104 132.668 50.104V52.104C133.426 52.104 134.416 52.0537 135.627 51.9568L135.468 49.9632ZM131.668 51.0846L131.272 71.5326L133.272 71.5714L133.668 51.1234L131.668 51.0846ZM132.177 72.5475L135.201 72.8355L135.391 70.8445L132.367 70.5565L132.177 72.5475ZM134.296 71.84C134.296 72.3074 134.154 72.8661 133.801 73.5308L135.567 74.4692C136.03 73.5979 136.296 72.7166 136.296 71.84H134.296ZM134.684 73H126.404V75H134.684V73ZM127.4 73.9146L127.292 72.6546L125.299 72.8254L125.407 74.0854L127.4 73.9146ZM126.618 73.6866C127.702 73.3176 128.757 73.043 129.783 72.8606L129.433 70.8914C128.299 71.093 127.145 71.3944 125.973 71.7934L126.618 73.6866ZM130.607 71.8472L130.319 61.8392L128.32 61.8968L128.608 71.9048L130.607 71.8472ZM129.32 60.868H117.44V62.868H129.32V60.868ZM116.44 61.8569C116.392 66.1777 116.368 69.4102 116.368 71.552H118.368C118.368 69.4218 118.392 66.1983 118.44 61.8791L116.44 61.8569ZM117.273 72.5475L120.297 72.8355L120.487 70.8445L117.463 70.5565L117.273 72.5475ZM119.392 71.84C119.392 72.3074 119.25 72.8661 118.897 73.5308L120.663 74.4692C121.126 73.5979 121.392 72.7166 121.392 71.84H119.392ZM119.78 73H111.5V75H119.78V73ZM112.496 73.9146L112.388 72.6546L110.395 72.8254L110.503 74.0854L112.496 73.9146ZM111.714 73.6866C112.798 73.3176 113.853 73.043 114.879 72.8606L114.529 70.8914C113.395 71.093 112.241 71.3944 111.069 71.7934L111.714 73.6866ZM115.703 71.8502C115.463 62.5379 115.271 55.5518 115.127 50.8931L113.128 50.9549C113.272 55.6082 113.464 62.5901 113.704 71.9018L115.703 71.8502ZM114.314 49.9414C113.482 49.7841 112.458 49.5095 111.234 49.1095L110.613 51.0105C111.885 51.4265 112.997 51.7279 113.942 51.9066L114.314 49.9414ZM111.92 50.1454L112.028 48.8854L110.035 48.7146L109.927 49.9746L111.92 50.1454ZM111.032 49.8H120.032V47.8H111.032V49.8ZM119.149 49.2692C119.502 49.9339 119.644 50.4926 119.644 50.96H121.644C121.644 50.0834 121.378 49.2021 120.915 48.3308L119.149 49.2692ZM120.564 49.9632C119.375 50.0583 118.445 50.104 117.764 50.104V52.104C118.522 52.104 119.512 52.0537 120.723 51.9568L120.564 49.9632ZM116.765 51.0646C116.692 52.8961 116.608 55.722 116.512 59.5388L118.511 59.5891C118.607 55.774 118.691 52.9599 118.763 51.1434L116.765 51.0646ZM142.429 49.556L142.113 48.6073L141.517 48.8057L141.437 49.428L142.429 49.556ZM145.957 49.088L146.044 50.0843L146.056 50.083L145.957 49.088ZM154.849 49.016L155.819 48.7735L155.66 48.1374L155.013 48.0296L154.849 49.016ZM154.669 50.276L153.711 49.9887L153.704 50.0109L153.699 50.0335L154.669 50.276ZM154.381 51.212L155.088 51.9191L155.203 51.8044L155.275 51.6592L154.381 51.212ZM152.761 51.644L152.653 50.6498L151.406 50.7846L151.816 51.9705L152.761 51.644ZM159.637 71.552L158.692 71.8785L158.904 72.4938L159.553 72.5485L159.637 71.552ZM163.057 71.84H164.057V70.9207L163.141 70.8435L163.057 71.84ZM162.445 74V75H163.046L163.328 74.4692L162.445 74ZM154.165 74L153.168 74.0854L153.247 75H154.165V74ZM154.057 72.74L153.594 71.8534L153.004 72.1616L153.06 72.8254L154.057 72.74ZM156.469 71.984L156.669 72.9637L157.798 72.7329L157.411 71.6481L156.469 71.984ZM154.633 66.836L155.575 66.5001L155.338 65.836H154.633V66.836ZM144.589 66.836V65.836H143.885L143.648 66.4983L144.589 66.836ZM142.897 71.552L141.956 71.2143L141.523 72.4211L142.799 72.5472L142.897 71.552ZM145.813 71.84H146.813V70.9339L145.911 70.8448L145.813 71.84ZM145.201 74V75H145.802L146.084 74.4692L145.201 74ZM136.921 74L135.924 74.0854L136.003 75H136.921V74ZM136.813 72.74L136.475 71.7988L135.751 72.0588L135.816 72.8254L136.813 72.74ZM139.801 71.948L139.98 72.9319L140.557 72.8269L140.747 72.2717L139.801 71.948ZM146.785 51.536L147.731 51.8597L148.134 50.6813L146.896 50.5423L146.785 51.536ZM142.285 50.672L141.293 50.544L141.193 51.3203L141.922 51.604L142.285 50.672ZM151.789 58.808L150.823 59.069L150.837 59.1184L150.855 59.1662L151.789 58.808ZM149.881 51.752L150.846 51.491L150.679 50.8712L150.045 50.7656L149.881 51.752ZM149.269 51.716V50.716H148.499L148.302 51.4601L149.269 51.716ZM147.325 59.06L148.259 59.4165L148.278 59.3671L148.292 59.3159L147.325 59.06ZM145.237 64.532L144.303 64.1755L143.785 65.532H145.237V64.532ZM153.985 64.532V65.532H155.44L154.918 64.1738L153.985 64.532ZM142.745 50.5047C142.859 50.4667 143.172 50.4011 143.766 50.3223C144.333 50.2471 145.091 50.1676 146.044 50.0842L145.87 48.0918C144.903 48.1764 144.112 48.2589 143.503 48.3397C142.921 48.4169 142.431 48.5013 142.113 48.6073L142.745 50.5047ZM146.056 50.083C147.951 49.8936 149.657 49.8 151.177 49.8V47.8C149.577 47.8 147.803 47.8984 145.857 48.093L146.056 50.083ZM151.177 49.8C152.742 49.8 153.902 49.8719 154.684 50.0024L155.013 48.0296C154.068 47.8721 152.779 47.8 151.177 47.8V49.8ZM153.879 49.2585C153.877 49.2507 153.879 49.2557 153.881 49.2775C153.883 49.2988 153.885 49.3311 153.885 49.376H155.885C155.885 49.1837 155.87 48.9758 155.819 48.7735L153.879 49.2585ZM153.885 49.376C153.885 49.322 153.891 49.2984 153.886 49.3308C153.882 49.3545 153.873 49.3954 153.858 49.4576C153.829 49.5819 153.78 49.757 153.711 49.9887L155.627 50.5633C155.701 50.315 155.761 50.1001 155.803 49.9244C155.838 49.7807 155.885 49.5691 155.885 49.376H153.885ZM153.699 50.0335C153.641 50.264 153.592 50.4432 153.551 50.5759C153.506 50.7213 153.484 50.77 153.486 50.7648L155.275 51.6592C155.405 51.4 155.524 50.9783 155.639 50.5185L153.699 50.0335ZM153.674 50.5049C153.74 50.4388 153.785 50.424 153.754 50.4382C153.73 50.4495 153.674 50.4712 153.574 50.4978C153.374 50.5512 153.073 50.6044 152.653 50.6498L152.868 52.6382C153.337 52.5876 153.75 52.5208 154.089 52.4302C154.385 52.3515 154.793 52.2143 155.088 51.9191L153.674 50.5049ZM151.816 51.9705L158.692 71.8785L160.582 71.2255L153.706 51.3175L151.816 51.9705ZM159.553 72.5485L162.973 72.8365L163.141 70.8435L159.721 70.5555L159.553 72.5485ZM162.057 71.84C162.057 72.3074 161.915 72.8661 161.562 73.5308L163.328 74.4692C163.791 73.5979 164.057 72.7166 164.057 71.84H162.057ZM162.445 73H154.165V75H162.445V73ZM155.161 73.9146L155.053 72.6546L153.06 72.8254L153.168 74.0854L155.161 73.9146ZM154.519 73.6266C154.95 73.402 155.648 73.1725 156.669 72.9637L156.268 71.0043C155.177 71.2275 154.268 71.502 153.594 71.8534L154.519 73.6266ZM157.411 71.6481L155.575 66.5001L153.691 67.1719L155.527 72.3199L157.411 71.6481ZM154.633 65.836H144.589V67.836H154.633V65.836ZM143.648 66.4983L141.956 71.2143L143.838 71.8897L145.53 67.1737L143.648 66.4983ZM142.799 72.5472L145.715 72.8352L145.911 70.8448L142.995 70.5568L142.799 72.5472ZM144.813 71.84C144.813 72.3074 144.671 72.8661 144.318 73.5308L146.084 74.4692C146.547 73.5979 146.813 72.7166 146.813 71.84H144.813ZM145.201 73H136.921V75H145.201V73ZM137.917 73.9146L137.809 72.6546L135.816 72.8254L135.924 74.0854L137.917 73.9146ZM137.151 73.6812C138.031 73.3652 138.974 73.1148 139.98 72.9319L139.622 70.9641C138.516 71.1652 137.467 71.4428 136.475 71.7988L137.151 73.6812ZM140.747 72.2717L147.731 51.8597L145.839 51.2123L138.855 71.6243L140.747 72.2717ZM146.896 50.5423C144.764 50.3026 143.379 50.0245 142.647 49.74L141.922 51.604C142.919 51.9915 144.534 52.2894 146.673 52.5297L146.896 50.5423ZM143.277 50.8L143.421 49.684L141.437 49.428L141.293 50.544L143.277 50.8ZM152.754 58.547L150.846 51.491L148.915 52.013L150.823 59.069L152.754 58.547ZM150.045 50.7656C149.82 50.7281 149.551 50.716 149.269 50.716V52.716C149.514 52.716 149.654 52.7279 149.716 52.7384L150.045 50.7656ZM148.302 51.4601L146.358 58.8041L148.292 59.3159L150.236 51.9719L148.302 51.4601ZM146.391 58.7035L144.303 64.1755L146.171 64.8885L148.259 59.4165L146.391 58.7035ZM145.237 65.532H153.985V63.532H145.237V65.532ZM154.918 64.1738L152.722 58.4498L150.855 59.1662L153.051 64.8902L154.918 64.1738ZM171.094 51.284V50.284H170.115L170.094 51.2633L171.094 51.284ZM170.914 59.96L169.914 59.9393L169.893 60.96H170.914V59.96ZM176.602 59.96V60.96H177.497L177.596 60.0704L176.602 59.96ZM176.89 57.368V56.368H175.995L175.896 57.2576L176.89 57.368ZM179.05 57.98H180.05V57.3789L179.519 57.0969L179.05 57.98ZM179.05 64.82L179.135 65.8163L180.05 65.738V64.82H179.05ZM177.79 64.928L176.846 65.2574L177.102 65.9907L177.875 65.9243L177.79 64.928ZM177.07 62.336L178.056 62.1661L177.912 61.336H177.07V62.336ZM170.914 62.336V61.336H169.937L169.914 62.313L170.914 62.336ZM170.77 71.588L169.77 71.5762L169.758 72.588H170.77V71.588ZM179.014 71.588V72.588H179.791L179.983 71.8354L179.014 71.588ZM179.878 68.204L179.947 67.2064L179.115 67.149L178.909 67.9566L179.878 68.204ZM181.966 68.348L182.937 68.1095L182.763 67.4006L182.035 67.3504L181.966 68.348ZM182.398 74V75H183.256L183.386 74.1521L182.398 74ZM164.902 74L163.906 74.0854L163.984 75H164.902V74ZM164.794 72.74L164.452 71.8002L163.732 72.062L163.798 72.8254L164.794 72.74ZM167.854 71.912L168.022 72.8977L168.867 72.7535L168.854 71.8966L167.854 71.912ZM167.494 51.032L168.494 51.011L168.475 50.1171L167.585 50.0361L167.494 51.032ZM164.326 50.168L163.335 50.0375L163.227 50.8557L164.01 51.1167L164.326 50.168ZM164.506 48.8V47.8H163.629L163.515 48.6695L164.506 48.8ZM181.858 48.8L182.846 48.6479L182.716 47.8H181.858V48.8ZM181.426 54.524L181.648 55.4991L182.267 55.3583L182.403 54.7377L181.426 54.524ZM179.338 54.704L178.369 54.9489L178.559 55.704H179.338V54.704ZM178.474 51.284L179.444 51.0391L179.253 50.284H178.474V51.284ZM170.094 51.2633L169.914 59.9393L171.914 59.9807L172.094 51.3047L170.094 51.2633ZM170.914 60.96H176.602V58.96H170.914V60.96ZM177.596 60.0704L177.884 57.4784L175.896 57.2576L175.608 59.8496L177.596 60.0704ZM176.89 58.368C177.357 58.368 177.916 58.51 178.581 58.8631L179.519 57.0969C178.648 56.634 177.767 56.368 176.89 56.368V58.368ZM178.05 57.98V64.82H180.05V57.98H178.05ZM178.965 63.8237L177.705 63.9317L177.875 65.9243L179.135 65.8163L178.965 63.8237ZM178.734 64.5986C178.384 63.5937 178.163 62.787 178.056 62.1661L176.085 62.5059C176.218 63.277 176.476 64.1983 176.846 65.2574L178.734 64.5986ZM177.07 61.336H170.914V63.336H177.07V61.336ZM169.914 62.313C169.866 64.4068 169.818 67.4953 169.77 71.5762L171.77 71.5998C171.818 67.5207 171.866 64.4412 171.914 62.359L169.914 62.313ZM170.77 72.588H179.014V70.588H170.77V72.588ZM179.983 71.8354L180.847 68.4514L178.909 67.9566L178.045 71.3406L179.983 71.8354ZM179.809 69.2016L181.897 69.3456L182.035 67.3504L179.947 67.2064L179.809 69.2016ZM180.995 68.5865C181.318 69.9007 181.47 71.03 181.47 71.984H183.47C183.47 70.826 183.286 69.5313 182.937 68.1095L180.995 68.5865ZM181.47 71.984C181.47 73.0338 181.444 73.6257 181.41 73.8479L183.386 74.1521C183.448 73.7503 183.47 72.9982 183.47 71.984H181.47ZM182.398 73H164.902V75H182.398V73ZM165.898 73.9146L165.79 72.6546L163.798 72.8254L163.906 74.0854L165.898 73.9146ZM165.136 73.6798C166.142 73.3138 167.104 73.0545 168.022 72.8977L167.686 70.9263C166.636 71.1055 165.558 71.3982 164.452 71.8002L165.136 73.6798ZM168.854 71.8966C168.71 62.5363 168.59 55.5739 168.494 51.011L166.494 51.053C166.59 55.6101 166.71 62.5677 166.854 71.9274L168.854 71.8966ZM167.585 50.0361C167.193 50.0005 166.249 49.755 164.642 49.2193L164.01 51.1167C165.571 51.637 166.739 51.9675 167.404 52.0279L167.585 50.0361ZM165.318 50.2985L165.498 48.9305L163.515 48.6695L163.335 50.0375L165.318 50.2985ZM164.506 49.8H181.858V47.8H164.506V49.8ZM180.87 48.9521C180.906 49.1849 180.93 49.6016 180.93 50.24H182.93C182.93 49.5824 182.907 49.0391 182.846 48.6479L180.87 48.9521ZM180.93 50.24C180.93 51.476 180.773 52.8316 180.449 54.3103L182.403 54.7377C182.752 53.1444 182.93 51.6439 182.93 50.24H180.93ZM181.204 53.5489C180.779 53.6456 180.166 53.704 179.338 53.704V55.704C180.238 55.704 181.017 55.6424 181.648 55.4991L181.204 53.5489ZM180.308 54.4591L179.444 51.0391L177.505 51.5289L178.369 54.9489L180.308 54.4591ZM178.474 50.284H171.094V52.284H178.474V50.284ZM204.42 68.348L205.315 67.9008L205.189 67.6491L204.95 67.5L204.42 68.348ZM204.708 70.004L203.716 70.128L203.717 70.1402L203.719 70.1523L204.708 70.004ZM204.816 74V75H205.646L205.799 74.1843L204.816 74ZM187.716 74L186.72 74.0854L186.798 75H187.716V74ZM187.608 72.74L187.268 71.7996L186.546 72.0607L186.612 72.8254L187.608 72.74ZM190.668 71.912L190.824 72.8998L191.681 72.7644L191.668 71.8968L190.668 71.912ZM190.308 50.996L191.308 50.9746L191.29 50.1353L190.46 50.0076L190.308 50.996ZM187.14 50.132L186.149 49.9981L186.037 50.8269L186.833 51.0837L187.14 50.132ZM187.32 48.8V47.8H186.446L186.329 48.6661L187.32 48.8ZM195.996 48.8L196.851 48.281L196.559 47.8H195.996V48.8ZM196.608 50.924L196.645 51.9233L197.608 51.8876V50.924H196.608ZM193.8 51.032L193.759 50.0329L192.81 50.0724L192.8 51.0216L193.8 51.032ZM193.656 63.632L192.656 63.6193L192.656 63.6256L193.656 63.632ZM193.584 71.588L192.584 71.5724L192.569 72.588H193.584V71.588ZM201.468 71.588V72.588H202.247L202.438 71.8329L201.468 71.588ZM202.332 68.168V67.168H201.553L201.363 67.9231L202.332 68.168ZM203.526 68.7952C203.489 68.7215 203.487 68.6867 203.507 68.7671C203.521 68.825 203.539 68.9142 203.561 69.0413C203.605 69.2944 203.657 69.6543 203.716 70.128L205.701 69.88C205.64 69.3937 205.583 68.9976 205.531 68.6987C205.506 68.5498 205.479 68.414 205.451 68.2979C205.428 68.2043 205.388 68.0465 205.315 67.9008L203.526 68.7952ZM203.719 70.1523C203.859 71.0828 203.924 71.8461 203.924 72.452H205.924C205.924 71.7139 205.846 70.8452 205.697 69.8557L203.719 70.1523ZM203.924 72.452C203.924 73.0728 203.889 73.519 203.833 73.8157L205.799 74.1843C205.887 73.713 205.924 73.1272 205.924 72.452H203.924ZM204.816 73H187.716V75H204.816V73ZM188.713 73.9146L188.605 72.6546L186.612 72.8254L186.72 74.0854L188.713 73.9146ZM187.948 73.6804C189.033 73.288 189.99 73.0314 190.824 72.8998L190.512 70.9242C189.522 71.0806 188.439 71.376 187.268 71.7996L187.948 73.6804ZM191.668 71.8968C191.524 62.4404 191.404 55.4659 191.308 50.9746L189.308 51.0174C189.404 55.5021 189.524 62.4716 189.668 71.9272L191.668 71.8968ZM190.46 50.0076C189.924 49.9251 188.937 49.6608 187.447 49.1803L186.833 51.0837C188.32 51.5632 189.444 51.8749 190.156 51.9844L190.46 50.0076ZM188.131 50.2659L188.311 48.9339L186.329 48.6661L186.149 49.9981L188.131 50.2659ZM187.32 49.8H195.996V47.8H187.32V49.8ZM195.141 49.319C195.46 49.8438 195.608 50.3735 195.608 50.924H197.608C197.608 49.9865 197.348 49.1002 196.851 48.281L195.141 49.319ZM196.571 49.9247C195.275 49.9727 194.337 50.0088 193.759 50.0329L193.842 52.0311C194.415 52.0072 195.349 51.9713 196.645 51.9233L196.571 49.9247ZM192.8 51.0216C192.752 55.629 192.704 59.8282 192.656 63.6193L194.656 63.6447C194.704 59.8518 194.752 55.651 194.8 51.0424L192.8 51.0216ZM192.656 63.6256C192.632 67.3937 192.608 70.0415 192.584 71.5724L194.584 71.6036C194.608 70.0625 194.632 67.4063 194.656 63.6384L192.656 63.6256ZM193.584 72.588H201.468V70.588H193.584V72.588ZM202.438 71.8329L203.302 68.4129L201.363 67.9231L200.499 71.3431L202.438 71.8329ZM202.332 69.168C202.921 69.168 203.362 69.1829 203.668 69.2093C203.822 69.2226 203.924 69.2373 203.983 69.2493C204.07 69.267 204.002 69.2656 203.89 69.196L204.95 67.5C204.743 67.3704 204.515 67.3165 204.38 67.2892C204.218 67.2562 204.034 67.2334 203.84 67.2167C203.45 67.1831 202.944 67.168 202.332 67.168V69.168Z" fill="black" mask="url(#path-1-outside-1_65_692)"/>
</svg>
